<svg xmlns="http://www.w3.org/2000/svg" viewBox="35 20 120 75" preserveAspectRatio="xMinYMid meet" width="100%" height="100%">
  <defs>
    <linearGradient id="blueGrad" x1="0" y1="0" x2="0" y2="1">
      <stop offset="0%" stop-color="#2563EB" />
      <stop offset="100%" stop-color="#1D4ED8" />
    </linearGradient>

    <linearGradient id="textGrad" x1="0" y1="0" x2="0" y2="1">
      <stop offset="0%" stop-color="#444844" />
      <stop offset="100%" stop-color="#6B706B" />
    </linearGradient>
  </defs>

  <g>
    <path d="M 40,20
             L 140,20 L 137,32 L 95,32
             L 94,38 L 120,38 L 117,50 L 91,50
             L 87,68 L 45,68
             L 50,56 L 75,56
             L 76,50 L 40,50
             L 45,38 L 79,38
             L 81,32 L 35,32 Z"
          fill="url(#blueGrad)" />

    <path d="M 55,95 Q 85,65 140,55 Q 100,75 80,95 Z" fill="url(#blueGrad)" />

    <path d="M 90,95 Q 115,75 155,68 Q 135,85 125,95 Z" fill="url(#blueGrad)" />
  </g>
</svg>
